<?xml version="1.0" encoding="UTF-8"?> <svg xmlns="http://www.w3.org/2000/svg" width="103" height="102" viewBox="0 0 103 102"><g id="Grupo_1269" data-name="Grupo 1269" transform="translate(-362 -2533)"><g id="Elipse_164" data-name="Elipse 164" transform="translate(362 2533)" fill="#fff" stroke="#e2c200" stroke-width="2"><ellipse cx="51.5" cy="51" rx="51.5" ry="51" stroke="none"></ellipse><ellipse cx="51.5" cy="51" rx="50.5" ry="50" fill="none"></ellipse></g><path id="car2" d="M13.793,39.862a4.539,4.539,0,1,1,4.539-4.539,4.545,4.545,0,0,1-4.539,4.539Zm0-6.052a1.513,1.513,0,1,0,1.513,1.513A1.513,1.513,0,0,0,13.793,33.81Zm27.235,6.052a4.539,4.539,0,1,1,4.539-4.539A4.545,4.545,0,0,1,41.029,39.862Zm0-6.052a1.513,1.513,0,1,0,1.513,1.513A1.513,1.513,0,0,0,41.029,33.81Zm7.439-6.334c-.393-2.4-1.674-9.725-3.06-12.5-.923-1.846-3.293-3.259-7.04-4.2A47.039,47.039,0,0,0,27.409,9.6a46.938,46.938,0,0,0-10.958,1.18c-3.747.938-6.117,2.349-7.04,4.2-1.386,2.773-2.667,10.1-3.06,12.5A7.165,7.165,0,0,0,3.2,33.81v7.565a4.543,4.543,0,0,0,3.026,4.278v3.287A3.03,3.03,0,0,0,9.25,51.967h3.026A3.03,3.03,0,0,0,15.3,48.941V45.915H39.512v3.026a3.03,3.03,0,0,0,3.026,3.026h3.026a3.03,3.03,0,0,0,3.026-3.026V45.654a4.545,4.545,0,0,0,3.026-4.278V33.81a7.167,7.167,0,0,0-3.153-6.334ZM12.119,16.33c.9-1.795,6.561-3.7,15.292-3.7S41.8,14.534,42.7,16.33c.868,1.74,1.835,6.344,2.43,9.633-.3-.087-.6-.17-.917-.242-.808-.191-1.68-.344-2.612-.473l-8.772-6.285a1.514,1.514,0,0,0-1.765,2.461l4.74,3.395c-2.572-.085-5.392-.085-8.4-.085H26.354l-8.7-5.8a1.513,1.513,0,0,0-1.678,2.517l4.974,3.317a51.134,51.134,0,0,0-10.349.949q-.471.113-.917.242c.6-3.289,1.562-7.893,2.432-9.633Zm.161,32.611H9.254V45.915H12.28Zm30.262,0V45.915h3.026v3.026Zm6.052-7.565a1.513,1.513,0,0,1-1.513,1.513H7.741a1.513,1.513,0,0,1-1.513-1.513V33.81c0-2.8,1.471-4.288,5.078-5.148,3.8-.9,9.5-.9,16.1-.9s12.305,0,16.1.9c3.607.859,5.078,2.351,5.078,5.148Z" transform="translate(385.753 2550.401)" fill="#453b4f"></path></g></svg> 